<mxfile host="app.diagrams.net" modified="2021-05-24T03:46:10.612Z" agent="5.0 (Windows NT 10.0; Win64; x64) AppleWebKit/537.36 (KHTML, like Gecko) Chrome/90.0.4430.212 Safari/537.36" etag="i6bIdDCt-Ard5GKBvGr0" version="14.6.13" type="github">
  <diagram id="wDkvw0Li7lhQuUnuCopA" name="Page-1">
    <mxGraphModel dx="1865" dy="548" grid="1" gridSize="10" guides="1" tooltips="1" connect="1" arrows="1" fold="1" page="1" pageScale="1" pageWidth="827" pageHeight="1169" math="0" shadow="0">
      <root>
        <mxCell id="0" />
        <mxCell id="1" parent="0" />
        <mxCell id="4ImDhPs0vx_Z9GY7AcT3-23" value="" style="rounded=0;whiteSpace=wrap;html=1;" parent="1" vertex="1">
          <mxGeometry x="30" y="190" width="640" height="260" as="geometry" />
        </mxCell>
        <mxCell id="4ImDhPs0vx_Z9GY7AcT3-1" value="&lt;p style=&quot;margin: 0px ; margin-top: 4px ; text-align: center ; text-decoration: underline&quot;&gt;&lt;b&gt;牌号（Grade&lt;/b&gt;&lt;b&gt;）&lt;/b&gt;&lt;/p&gt;&lt;hr&gt;&lt;p style=&quot;margin: 0px ; margin-left: 8px&quot;&gt;field1 = value1&lt;br&gt;field2 = value2&lt;br&gt;field3 = value3&lt;/p&gt;" style="verticalAlign=top;align=left;overflow=fill;fontSize=12;fontFamily=Helvetica;html=1;" parent="1" vertex="1">
          <mxGeometry x="410" y="220" width="160" height="90" as="geometry" />
        </mxCell>
        <mxCell id="4ImDhPs0vx_Z9GY7AcT3-2" value="&lt;p style=&quot;margin: 0px ; margin-top: 4px ; text-align: center ; text-decoration: underline&quot;&gt;&lt;b&gt;工序（Ope）&lt;/b&gt;&lt;/p&gt;&lt;hr&gt;&lt;p style=&quot;margin: 0px ; margin-left: 8px&quot;&gt;field1 = value1&lt;br&gt;field2 = value2&lt;br&gt;field3 = value3&lt;/p&gt;" style="verticalAlign=top;align=left;overflow=fill;fontSize=12;fontFamily=Helvetica;html=1;" parent="1" vertex="1">
          <mxGeometry x="410" y="320" width="160" height="90" as="geometry" />
        </mxCell>
        <mxCell id="4ImDhPs0vx_Z9GY7AcT3-3" value="&lt;p style=&quot;margin: 0px ; margin-top: 4px ; text-align: center ; text-decoration: underline&quot;&gt;&lt;b&gt;工艺（Prop）&lt;/b&gt;&lt;/p&gt;&lt;hr&gt;&lt;p style=&quot;margin: 0px ; margin-left: 8px&quot;&gt;propCode= value1&lt;br&gt;opeCode= value2&lt;br&gt;&lt;/p&gt;" style="verticalAlign=top;align=left;overflow=fill;fontSize=12;fontFamily=Helvetica;html=1;" parent="1" vertex="1">
          <mxGeometry x="410" y="540" width="160" height="90" as="geometry" />
        </mxCell>
        <mxCell id="4ImDhPs0vx_Z9GY7AcT3-14" value="&lt;p style=&quot;margin: 0px ; margin-top: 4px ; text-align: center ; text-decoration: underline&quot;&gt;&lt;b&gt;牌号推导链（Chan）&lt;/b&gt;&lt;/p&gt;&lt;hr&gt;&lt;p style=&quot;margin: 0px ; margin-left: 8px&quot;&gt;Code&lt;/p&gt;&lt;p style=&quot;margin: 0px ; margin-left: 8px&quot;&gt;Ope&lt;br&gt;Grade&lt;/p&gt;&lt;p style=&quot;margin: 0px ; margin-left: 8px&quot;&gt;Parent&lt;/p&gt;" style="verticalAlign=top;align=left;overflow=fill;fontSize=12;fontFamily=Helvetica;html=1;" parent="1" vertex="1">
          <mxGeometry x="70" y="220" width="160" height="90" as="geometry" />
        </mxCell>
        <mxCell id="4ImDhPs0vx_Z9GY7AcT3-16" value="1" style="endArrow=open;html=1;endSize=12;startArrow=diamondThin;startSize=14;startFill=1;edgeStyle=orthogonalEdgeStyle;align=left;verticalAlign=bottom;exitX=1;exitY=0.25;exitDx=0;exitDy=0;entryX=0;entryY=0.5;entryDx=0;entryDy=0;" parent="1" source="4ImDhPs0vx_Z9GY7AcT3-14" target="4ImDhPs0vx_Z9GY7AcT3-1" edge="1">
          <mxGeometry x="-1" y="3" relative="1" as="geometry">
            <mxPoint x="140" y="390" as="sourcePoint" />
            <mxPoint x="300" y="390" as="targetPoint" />
          </mxGeometry>
        </mxCell>
        <mxCell id="4ImDhPs0vx_Z9GY7AcT3-18" value="1" style="endArrow=open;html=1;endSize=12;startArrow=diamondThin;startSize=14;startFill=1;edgeStyle=orthogonalEdgeStyle;align=left;verticalAlign=bottom;exitX=1;exitY=0.75;exitDx=0;exitDy=0;entryX=0;entryY=0.5;entryDx=0;entryDy=0;" parent="1" source="4ImDhPs0vx_Z9GY7AcT3-14" target="4ImDhPs0vx_Z9GY7AcT3-2" edge="1">
          <mxGeometry x="-1" y="3" relative="1" as="geometry">
            <mxPoint x="70" y="410" as="sourcePoint" />
            <mxPoint x="230" y="410" as="targetPoint" />
          </mxGeometry>
        </mxCell>
        <mxCell id="4ImDhPs0vx_Z9GY7AcT3-19" value="Relation" style="endArrow=open;html=1;endSize=12;startArrow=diamondThin;startSize=14;startFill=0;edgeStyle=orthogonalEdgeStyle;entryX=1;entryY=0.5;entryDx=0;entryDy=0;exitX=1;exitY=0.5;exitDx=0;exitDy=0;" parent="1" source="4ImDhPs0vx_Z9GY7AcT3-3" target="4ImDhPs0vx_Z9GY7AcT3-2" edge="1">
          <mxGeometry relative="1" as="geometry">
            <mxPoint x="60" y="510" as="sourcePoint" />
            <mxPoint x="500" y="430" as="targetPoint" />
            <Array as="points">
              <mxPoint x="620" y="585" />
              <mxPoint x="620" y="365" />
            </Array>
          </mxGeometry>
        </mxCell>
        <mxCell id="4ImDhPs0vx_Z9GY7AcT3-20" value="0..n" style="edgeLabel;resizable=0;html=1;align=left;verticalAlign=top;" parent="4ImDhPs0vx_Z9GY7AcT3-19" connectable="0" vertex="1">
          <mxGeometry x="-1" relative="1" as="geometry" />
        </mxCell>
        <mxCell id="4ImDhPs0vx_Z9GY7AcT3-21" value="1" style="edgeLabel;resizable=0;html=1;align=right;verticalAlign=top;" parent="4ImDhPs0vx_Z9GY7AcT3-19" connectable="0" vertex="1">
          <mxGeometry x="1" relative="1" as="geometry" />
        </mxCell>
        <mxCell id="4ImDhPs0vx_Z9GY7AcT3-15" value="&lt;p style=&quot;margin: 0px ; margin-top: 4px ; text-align: center ; text-decoration: underline&quot;&gt;&lt;b&gt;物料&lt;/b&gt;&lt;/p&gt;&lt;hr&gt;&lt;p style=&quot;margin: 0px ; margin-left: 8px&quot;&gt;field1 = value1&lt;br&gt;field2 = value2&lt;br&gt;field3 = value3&lt;/p&gt;" style="verticalAlign=top;align=left;overflow=fill;fontSize=12;fontFamily=Helvetica;html=1;" parent="1" vertex="1">
          <mxGeometry x="667" y="620" width="160" height="90" as="geometry" />
        </mxCell>
        <mxCell id="4ImDhPs0vx_Z9GY7AcT3-31" value="&lt;p style=&quot;margin: 0px ; margin-top: 4px ; text-align: center ; text-decoration: underline&quot;&gt;&lt;b&gt;执行标准（Stand）&lt;/b&gt;&lt;/p&gt;&lt;hr&gt;&lt;p style=&quot;margin: 0px ; margin-left: 8px&quot;&gt;field1 = value1&lt;br&gt;field2 = value2&lt;br&gt;field3 = value3&lt;/p&gt;" style="verticalAlign=top;align=left;overflow=fill;fontSize=12;fontFamily=Helvetica;html=1;" parent="1" vertex="1">
          <mxGeometry x="110" y="500" width="160" height="90" as="geometry" />
        </mxCell>
        <mxCell id="4ImDhPs0vx_Z9GY7AcT3-32" value="&lt;p style=&quot;margin: 0px ; margin-top: 4px ; text-align: center ; text-decoration: underline&quot;&gt;&lt;b&gt;销单（SOrder）&lt;/b&gt;&lt;/p&gt;&lt;hr&gt;&lt;p style=&quot;margin: 0px ; margin-left: 8px&quot;&gt;field1 = value1&lt;br&gt;field2 = value2&lt;br&gt;field3 = value3&lt;/p&gt;" style="verticalAlign=top;align=left;overflow=fill;fontSize=12;fontFamily=Helvetica;html=1;" parent="1" vertex="1">
          <mxGeometry x="-640" y="540" width="160" height="90" as="geometry" />
        </mxCell>
        <mxCell id="4ImDhPs0vx_Z9GY7AcT3-33" value="&lt;p style=&quot;margin: 0px ; margin-top: 4px ; text-align: center ; text-decoration: underline&quot;&gt;&lt;b&gt;销单行项目（SOrderItem）&lt;/b&gt;&lt;/p&gt;&lt;hr&gt;&lt;p style=&quot;margin: 0px ; margin-left: 8px&quot;&gt;field1 = value1&lt;br&gt;field2 = value2&lt;br&gt;matnr = value3&lt;/p&gt;" style="verticalAlign=top;align=left;overflow=fill;fontSize=12;fontFamily=Helvetica;html=1;" parent="1" vertex="1">
          <mxGeometry x="-640" y="680" width="160" height="90" as="geometry" />
        </mxCell>
        <mxCell id="4ImDhPs0vx_Z9GY7AcT3-34" value="Relation" style="endArrow=open;html=1;endSize=12;startArrow=diamondThin;startSize=14;startFill=0;edgeStyle=orthogonalEdgeStyle;entryX=1;entryY=0.5;entryDx=0;entryDy=0;exitX=1;exitY=0.25;exitDx=0;exitDy=0;" parent="1" source="4ImDhPs0vx_Z9GY7AcT3-33" target="4ImDhPs0vx_Z9GY7AcT3-32" edge="1">
          <mxGeometry relative="1" as="geometry">
            <mxPoint x="-310" y="940" as="sourcePoint" />
            <mxPoint x="-150" y="940" as="targetPoint" />
            <Array as="points">
              <mxPoint x="-420" y="703" />
              <mxPoint x="-420" y="585" />
            </Array>
          </mxGeometry>
        </mxCell>
        <mxCell id="4ImDhPs0vx_Z9GY7AcT3-35" value="0..n" style="edgeLabel;resizable=0;html=1;align=left;verticalAlign=top;" parent="4ImDhPs0vx_Z9GY7AcT3-34" connectable="0" vertex="1">
          <mxGeometry x="-1" relative="1" as="geometry" />
        </mxCell>
        <mxCell id="4ImDhPs0vx_Z9GY7AcT3-36" value="1" style="edgeLabel;resizable=0;html=1;align=right;verticalAlign=top;" parent="4ImDhPs0vx_Z9GY7AcT3-34" connectable="0" vertex="1">
          <mxGeometry x="1" relative="1" as="geometry" />
        </mxCell>
        <mxCell id="4ImDhPs0vx_Z9GY7AcT3-37" value="&lt;p style=&quot;margin: 0px ; margin-top: 4px ; text-align: center ; text-decoration: underline&quot;&gt;&lt;b&gt;行项目特性&lt;/b&gt;&lt;/p&gt;&lt;hr&gt;&lt;p style=&quot;margin: 0px ; margin-left: 8px&quot;&gt;matnr（物料编码）&lt;/p&gt;&lt;p style=&quot;margin: 0px ; margin-left: 8px&quot;&gt;charcode (特性编码)&lt;/p&gt;&lt;p style=&quot;margin: 0px ; margin-left: 8px&quot;&gt;code（特性值编码）&lt;br&gt;name（特性值名称）&lt;br&gt;value（特性值内容）&lt;/p&gt;" style="verticalAlign=top;align=left;overflow=fill;fontSize=12;fontFamily=Helvetica;html=1;" parent="1" vertex="1">
          <mxGeometry x="-640" y="800" width="160" height="110" as="geometry" />
        </mxCell>
        <mxCell id="4ImDhPs0vx_Z9GY7AcT3-38" value="Relation" style="endArrow=open;html=1;endSize=12;startArrow=diamondThin;startSize=14;startFill=0;edgeStyle=orthogonalEdgeStyle;exitX=1;exitY=0.594;exitDx=0;exitDy=0;exitPerimeter=0;" parent="1" source="4ImDhPs0vx_Z9GY7AcT3-37" edge="1">
          <mxGeometry relative="1" as="geometry">
            <mxPoint x="-380" y="847.5" as="sourcePoint" />
            <mxPoint x="-480" y="730" as="targetPoint" />
            <Array as="points">
              <mxPoint x="-420" y="865" />
              <mxPoint x="-420" y="730" />
            </Array>
          </mxGeometry>
        </mxCell>
        <mxCell id="4ImDhPs0vx_Z9GY7AcT3-39" value="0..n" style="edgeLabel;resizable=0;html=1;align=left;verticalAlign=top;" parent="4ImDhPs0vx_Z9GY7AcT3-38" connectable="0" vertex="1">
          <mxGeometry x="-1" relative="1" as="geometry" />
        </mxCell>
        <mxCell id="4ImDhPs0vx_Z9GY7AcT3-40" value="1" style="edgeLabel;resizable=0;html=1;align=right;verticalAlign=top;" parent="4ImDhPs0vx_Z9GY7AcT3-38" connectable="0" vertex="1">
          <mxGeometry x="1" relative="1" as="geometry" />
        </mxCell>
      </root>
    </mxGraphModel>
  </diagram>
</mxfile>
